<?xml version="1.0" encoding="UTF-8"?>
<svg id="Layer_1" xmlns="http://www.w3.org/2000/svg" version="1.1" viewBox="0 0 170.08 170.08">
  <!-- Generator: Adobe Illustrator 30.2.1, SVG Export Plug-In . SVG Version: 2.1.1 Build 1)  -->
  <defs>
    <style>
      .st0 {
        fill: #fff;
      }
    </style>
  </defs>
  <path class="st0" d="M88.31,165.83h-6.54c-8.49,0-15.37-6.88-15.37-15.37l4.26-65.41-4.26-65.41c0-8.49,6.88-15.37,15.37-15.37h6.54c8.49,0,15.37,6.88,15.37,15.37l-4.26,65.41,4.26,65.41c0,8.49-6.88,15.37-15.37,15.37Z"/>
  <path class="st0" d="M156.64,122.6l-3.27,5.67c-4.24,7.35-13.65,9.87-21,5.63l-54.52-36.4-58.78-29.01c-7.35-4.24-9.87-13.65-5.63-21l3.27-5.67c4.24-7.35,13.65-9.87,21-5.63l54.52,36.4,58.78,29.01c7.35,4.24,9.87,13.65,5.63,21Z"/>
  <path class="st0" d="M153.37,41.81l3.27,5.67c4.24,7.35,1.73,16.75-5.63,21l-58.78,29.01-54.52,36.4c-7.35,4.24-16.75,1.73-21-5.63l-3.27-5.67c-4.24-7.35-1.73-16.75,5.63-21l58.78-29.01,54.52-36.4c7.35-4.24,16.75-1.73,21,5.63Z"/>
</svg>