<?xml version="1.0" encoding="UTF-8"?>
<svg id="Layer_1" xmlns="http://www.w3.org/2000/svg" version="1.1" viewBox="0 0 170.08 170.08">
  <!-- Generator: Adobe Illustrator 30.2.1, SVG Export Plug-In . SVG Version: 2.1.1 Build 1)  -->
  <defs>
    <style>
      .st0 {
        fill: #fff;
      }
    </style>
  </defs>
  <path class="st0" d="M43.58,64.36c-16.48,0-28.58,8.74-35.98-10.43-5.42-14.05,11.43-31,35.82-30.6h.34c24.39-.4,41.24,16.55,35.82,30.6-7.4,19.17-19.51,10.43-35.98,10.43Z"/>
  <path class="st0" d="M48.3,113.53c-5.09,15.67-.52,29.89-21.03,31-15.04.82-25.95-20.45-18.04-43.52l.1-.32c7.16-23.32,28.49-34.1,40.17-24.61,15.94,12.96,3.89,21.77-1.2,37.44Z"/>
  <path class="st0" d="M95.8,123.26c13.33,9.69,28.27,9.73,22.98,29.58-3.87,14.55-27.47,18.36-46.96,3.71l-.27-.2c-19.96-14.01-23.63-37.63-10.99-45.81,17.25-11.16,21.91,3.03,35.24,12.72Z"/>
  <path class="st0" d="M120.91,80.14c13.33-9.69,17.99-23.88,35.24-12.72,12.64,8.18,8.98,31.8-10.99,45.81l-.27.2c-19.5,14.66-43.09,10.85-46.96-3.71-5.28-19.86,9.65-19.9,22.98-29.58Z"/>
  <path class="st0" d="M86.99,45.14c-5.09-15.67-17.15-24.48-1.2-37.44,11.69-9.5,33.01,1.29,40.17,24.61l.1.32c7.91,23.07-3,44.33-18.04,43.52-20.52-1.11-15.94-15.33-21.03-31Z"/>
</svg>