<?xml version="1.0" encoding="UTF-8"?>
<svg id="Layer_1" xmlns="http://www.w3.org/2000/svg" version="1.1" viewBox="0 0 170.08 170.08">
  <!-- Generator: Adobe Illustrator 30.2.1, SVG Export Plug-In . SVG Version: 2.1.1 Build 1)  -->
  <defs>
    <style>
      .st0 {
        fill: #fff;
      }
    </style>
  </defs>
  <path class="st0" d="M54.22,73.86c-6.6-12.31-40.17-13.15-48.04-.79s9.98,44.44,24.7,42.79,29.94-29.69,23.34-42Z"/>
  <path class="st0" d="M36.31,149.4c6.6,12.31,40.17,13.15,48.04.79,7.87-12.36-9.98-44.44-24.7-42.79s-29.94,29.69-23.34,42Z"/>
  <path class="st0" d="M92.11,116.86c-7.36,11.87,8.7,41.36,23.34,42,14.64.64,33.5-30.86,24.7-42.79-8.8-11.93-40.68-11.08-48.04.79Z"/>
  <path class="st0" d="M163.98,96.13c7.36-11.87-8.7-41.36-23.34-42-14.64-.64-33.5,30.86-24.7,42.79,8.8,11.93,40.68,11.08,48.04-.79Z"/>
  <path class="st0" d="M110.53,62.2c13.96.44,31.47-28.21,24.7-41.21s-43.48-13.58-49.41,0c-5.93,13.58,10.74,40.77,24.7,41.21Z"/>
  <path class="st0" d="M54.88,11.03c-13.96-.44-31.47,28.21-24.7,41.21s43.48,13.58,49.41,0c5.93-13.58-10.74-40.77-24.7-41.21Z"/>
</svg>