<?xml version="1.0" encoding="UTF-8"?>
<svg id="Layer_1" xmlns="http://www.w3.org/2000/svg" version="1.1" viewBox="0 0 170.08 170.08">
  <!-- Generator: Adobe Illustrator 30.2.1, SVG Export Plug-In . SVG Version: 2.1.1 Build 1)  -->
  <defs>
    <style>
      .st0 {
        fill: #fff;
      }
    </style>
  </defs>
  <ellipse class="st0" cx="32.62" cy="139.62" rx="25.53" ry="25.45"/>
  <path class="st0" d="M90.35,159.3c-1.71,0-3.45-.22-5.19-.67-10.84-2.85-17.31-13.91-14.46-24.72.79-3.31,4.13-21.38-12.83-29.97-9.27-4.7-19.39-3.05-29.16-1.46l-.91.15c-11.07,1.8-21.49-5.7-23.29-16.73-1.8-11.03,5.72-21.43,16.78-23.22l.88-.14c12.34-2.01,33-5.36,54.09,5.33,37.58,19.04,38.47,58.28,33.69,76.36-2.4,9.08-10.62,15.09-19.61,15.09Z"/>
  <path class="st0" d="M144.98,149.07c-.33,0-.65,0-.97-.02-11.49-.51-20.37-9.98-19.84-21.14.02-.45,1.73-52.13-30.58-73.32-24.12-15.81-59.7-6.45-60.05-6.35-11.04,2.98-22.54-3.26-25.65-13.98-3.12-10.72,3.22-21.86,14.24-24.94,2.2-.61,54.37-14.75,94.75,11.72,51.81,33.97,49.03,105.69,48.88,108.73-.51,10.85-9.72,19.31-20.78,19.31Z"/>
</svg>