<?xml version="1.0" encoding="UTF-8"?>
<svg id="Layer_1" xmlns="http://www.w3.org/2000/svg" version="1.1" viewBox="0 0 170.08 170.08">
  <!-- Generator: Adobe Illustrator 30.2.1, SVG Export Plug-In . SVG Version: 2.1.1 Build 1)  -->
  <defs>
    <style>
      .st0 {
        fill: #fff;
      }
    </style>
  </defs>
  <path class="st0" d="M77.96,97.06c7.5,14.51-5.55,63.22-31.89,66.16-26.34,2.94-51.47-50.45-38.13-66.04,13.34-15.59,62.52-14.63,70.02-.12Z"/>
  <path class="st0" d="M84.63,83.85c16.31-.76,51.97-36.42,41.35-60.7-10.62-24.28-69.42-19.35-76.25,0-6.83,19.35,18.59,61.46,34.9,60.7Z"/>
  <path class="st0" d="M92.12,97.06c-7.5,14.51,5.55,63.22,31.89,66.16,26.34,2.94,51.47-50.45,38.13-66.04-13.34-15.59-62.52-14.63-70.02-.12Z"/>
</svg>