<?xml version="1.0" encoding="UTF-8"?>
<svg id="Layer_1" xmlns="http://www.w3.org/2000/svg" version="1.1" viewBox="0 0 170.08 170.08">
  <!-- Generator: Adobe Illustrator 30.2.1, SVG Export Plug-In . SVG Version: 2.1.1 Build 1)  -->
  <defs>
    <style>
      .st0 {
        fill: #fff;
      }
    </style>
  </defs>
  <path class="st0" d="M122.63,107.08l-20.8-.44-.37-.79c-4.11-8.71-14.5-12.43-23.21-8.32-3.84,1.82-6.71,4.86-8.37,8.43l-31.07-.65c-9.63-.18-17.6,7.44-17.8,17.06-.2,9.63,7.44,17.6,17.06,17.8l41.44.87,6.98,14.79c2.98,6.3,9.24,9.99,15.78,9.99,2.49,0,5.03-.54,7.43-1.67,8.4-3.97,12.14-13.78,8.7-22.29l3.49.07c.12,0,.25,0,.37,0,9.46,0,17.22-7.57,17.42-17.07.2-9.63-7.44-17.6-17.06-17.8Z"/>
  <path class="st0" d="M83.88,7.32c-7.93-5.46-18.79-3.45-24.24,4.49l-12.41,18.05h-20c-8.94,0-16.19,7.25-16.19,16.19,0,7.76,5.47,14.24,12.76,15.82l-10.57,14.24c-5.74,7.73-4.13,18.65,3.6,24.39,3.12,2.32,6.77,3.44,10.38,3.44,5.33,0,10.59-2.43,14.01-7.04l19.98-26.91c1.69.57,3.44.91,5.2.91,4.29,0,8.58-1.7,11.76-5.07,5.54-5.86,5.83-14.77,1.07-20.97l9.14-13.29c5.45-7.93,3.44-18.79-4.49-24.24Z"/>
  <path class="st0" d="M160.3,74.32c0-8.52-6.12-15.61-14.21-17.12l-7.83-18.07c-3.82-8.83-14.08-12.9-22.93-9.07-8.84,3.83-12.9,14.09-9.07,22.93l1.69,3.9h-5.4c-9.63,0-17.43,7.81-17.43,17.43s7.81,17.43,17.43,17.43h20.51l.73,1.68c2.85,6.58,9.27,10.51,16.01,10.51,2.31,0,4.66-.46,6.92-1.44,7.26-3.15,11.29-10.64,10.37-18.12,2.02-2.84,3.21-6.31,3.21-10.06Z"/>
</svg>