<?xml version="1.0" encoding="UTF-8"?>
<svg id="Layer_1" xmlns="http://www.w3.org/2000/svg" version="1.1" viewBox="0 0 170.08 170.08">
  <!-- Generator: Adobe Illustrator 30.2.1, SVG Export Plug-In . SVG Version: 2.1.1 Build 1)  -->
  <defs>
    <style>
      .st0 {
        fill: #fff;
      }
    </style>
  </defs>
  <g>
    <path class="st0" d="M87.94,148.82h-5.43c-5.28,0-9.37-4.62-8.73-9.86l2.72-22.19c.54-4.41,4.29-7.73,8.73-7.73h0c4.44,0,8.19,3.32,8.73,7.73l2.72,22.19c.64,5.24-3.45,9.86-8.73,9.86Z"/>
    <path class="st0" d="M124.89,134.85l-4.4,3.19c-4.27,3.1-10.3,1.77-12.86-2.85l-10.85-19.55c-2.16-3.89-1.07-8.77,2.52-11.38h0c3.6-2.61,8.57-2.13,11.6,1.12l15.24,16.36c3.6,3.86,3.01,10.01-1.26,13.11Z"/>
    <path class="st0" d="M146.23,102.15l-1.68,5.17c-1.63,5.02-7.29,7.49-12.08,5.25l-20.27-9.44c-4.03-1.88-6.02-6.46-4.65-10.69h0c1.37-4.23,5.68-6.76,10.05-5.92l21.95,4.27c5.18,1.01,8.32,6.33,6.68,11.35Z"/>
    <path class="st0" d="M144.55,62.76l1.68,5.17c1.63,5.02-1.5,10.34-6.68,11.35l-21.95,4.27c-4.36.85-8.67-1.69-10.05-5.92h0c-1.37-4.23.62-8.81,4.65-10.69l20.27-9.44c4.79-2.23,10.45.23,12.08,5.25Z"/>
    <path class="st0" d="M120.14,31.85l4.4,3.19c4.27,3.1,4.87,9.25,1.26,13.11l-15.24,16.36c-3.03,3.25-8.01,3.73-11.6,1.12h0c-3.6-2.61-4.68-7.5-2.52-11.38l10.85-19.55c2.56-4.62,8.59-5.95,12.86-2.85Z"/>
    <path class="st0" d="M45.19,134.94l4.4,3.19c4.27,3.1,10.3,1.77,12.86-2.85l10.85-19.55c2.16-3.89,1.07-8.77-2.52-11.38h0c-3.6-2.61-8.57-2.13-11.6,1.12l-15.24,16.36c-3.6,3.86-3.01,10.01,1.26,13.11Z"/>
    <path class="st0" d="M23.85,102.25l1.68,5.17c1.63,5.02,7.29,7.49,12.08,5.25l20.27-9.44c4.03-1.88,6.02-6.46,4.65-10.69h0c-1.37-4.23-5.68-6.76-10.05-5.92l-21.95,4.27c-5.18,1.01-8.32,6.33-6.68,11.35Z"/>
    <path class="st0" d="M25.53,62.85l-1.68,5.17c-1.63,5.02,1.5,10.34,6.68,11.35l21.95,4.27c4.36.85,8.67-1.69,10.05-5.92h0c1.37-4.23-.62-8.81-4.65-10.69l-20.27-9.44c-4.79-2.23-10.45.23-12.08,5.25Z"/>
    <path class="st0" d="M49.94,31.94l-4.4,3.19c-4.27,3.1-4.87,9.25-1.26,13.11l15.24,16.36c3.03,3.25,8.01,3.73,11.6,1.12h0c3.6-2.61,4.68-7.5,2.52-11.38l-10.85-19.55c-2.56-4.62-8.59-5.95-12.86-2.85Z"/>
    <path class="st0" d="M82.51,21.26h5.43c5.28,0,9.37,4.62,8.73,9.86l-2.72,22.19c-.54,4.41-4.29,7.73-8.73,7.73h0c-4.44,0-8.19-3.32-8.73-7.73l-2.72-22.19c-.64-5.24,3.45-9.86,8.73-9.86Z"/>
  </g>
  <circle class="st0" cx="85.04" cy="85.04" r="22.18"/>
</svg>