<?xml version="1.0" encoding="UTF-8"?>
<svg id="Layer_1" xmlns="http://www.w3.org/2000/svg" version="1.1" viewBox="0 0 170.08 170.08">
  <!-- Generator: Adobe Illustrator 30.2.1, SVG Export Plug-In . SVG Version: 2.1.1 Build 1)  -->
  <defs>
    <style>
      .st0 {
        fill: #fff;
      }
    </style>
  </defs>
  <path class="st0" d="M105.36,153.67h-40.64c-17.57,0-28.39-13.78-19.3-24.57l4.75-5.64c4.09-4.85,11.41-7.81,19.3-7.81h31.14c7.89,0,15.21,2.96,19.3,7.81l4.75,5.64c9.09,10.79-1.73,24.57-19.3,24.57Z"/>
  <path class="st0" d="M64.72,16.41h40.64c17.57,0,28.39,13.78,19.3,24.57l-4.75,5.64c-4.09,4.85-11.41,7.81-19.3,7.81h-31.14c-7.89,0-15.21-2.96-19.3-7.81l-4.75-5.64c-9.09-10.79,1.73-24.57,19.3-24.57Z"/>
  <path class="st0" d="M153.67,64.72v40.64c0,17.57-13.78,28.39-24.57,19.3l-5.64-4.75c-4.85-4.09-7.81-11.41-7.81-19.3v-31.14c0-7.89,2.96-15.21,7.81-19.3l5.64-4.75c10.79-9.09,24.57,1.73,24.57,19.3Z"/>
  <path class="st0" d="M16.41,105.36v-40.64c0-17.57,13.78-28.39,24.57-19.3l5.64,4.75c4.85,4.09,7.81,11.41,7.81,19.3v31.14c0,7.89-2.96,15.21-7.81,19.3l-5.64,4.75c-10.79,9.09-24.57-1.73-24.57-19.3Z"/>
</svg>