<?xml version="1.0" standalone="no"?>
<!DOCTYPE svg PUBLIC "-//W3C//DTD SVG 20010904//EN"
 "http://www.w3.org/TR/2001/REC-SVG-20010904/DTD/svg10.dtd">
<svg version="1.0" xmlns="http://www.w3.org/2000/svg"
 width="30.000000pt" height="30.000000pt" viewBox="0 0 30.000000 30.000000"
 preserveAspectRatio="xMidYMid meet">
<metadata>
Created by potrace 1.16, written by Peter Selinger 2001-2019
</metadata>
<g transform="translate(0.000000,30.000000) scale(0.100000,-0.100000)"
fill="#ffffff" stroke="none">
<path d="M120 270 c0 -5 14 -10 30 -10 17 0 30 5 30 10 0 6 -13 10 -30 10 -16
0 -30 -4 -30 -10z"/>
<path d="M50 245 c-7 -9 -10 -19 -6 -22 8 -9 38 9 44 25 5 17 -23 15 -38 -3z"/>
<path d="M210 252 c0 -10 33 -42 43 -42 12 0 7 18 -9 34 -17 17 -34 21 -34 8z"/>
<path d="M137 243 c-3 -5 0 -19 6 -33 l10 -25 7 25 c7 27 4 40 -10 40 -5 0
-11 -3 -13 -7z"/>
<path d="M80 215 c-7 -8 -8 -15 -2 -15 5 0 15 7 22 15 7 8 8 15 2 15 -5 0 -15
-7 -22 -15z"/>
<path d="M200 215 c7 -8 17 -15 22 -15 6 0 5 7 -2 15 -7 8 -17 15 -22 15 -6 0
-5 -7 2 -15z"/>
<path d="M102 198 c2 -6 10 -14 16 -16 7 -2 10 2 6 12 -7 18 -28 22 -22 4z"/>
<path d="M176 195 c-3 -8 -1 -15 4 -15 13 0 22 18 11 24 -5 3 -11 -1 -15 -9z"/>
<path d="M16 183 c-11 -27 -6 -53 9 -53 8 0 15 4 15 9 0 5 6 9 13 8 41 -1 67
4 62 13 -3 6 -14 10 -23 10 -9 0 -29 6 -44 14 -23 12 -27 12 -32 -1z"/>
<path d="M260 161 c0 -32 14 -49 25 -31 9 15 -3 60 -15 60 -6 0 -10 -13 -10
-29z"/>
<path d="M205 165 c-26 -11 -20 -18 11 -14 4 0 10 -5 15 -12 6 -10 9 -9 15 4
10 28 -7 37 -41 22z"/>
<path d="M93 128 c-13 -6 -23 -15 -23 -20 0 -5 -9 -6 -20 -3 -27 9 -27 -18 0
-45 22 -22 45 -18 36 6 -3 8 1 14 8 14 7 0 18 11 24 25 18 40 15 42 -25 23z"/>
<path d="M170 136 c0 -3 5 -17 12 -31 13 -29 41 -30 46 -2 2 10 0 16 -5 15 -4
-1 -18 3 -30 10 -13 7 -23 11 -23 8z"/>
<path d="M134 103 c-4 -16 -6 -32 -5 -37 1 -5 -3 -12 -10 -16 -18 -12 0 -30
30 -30 34 0 44 9 31 26 -6 6 -10 16 -9 20 4 15 -13 64 -21 64 -4 0 -11 -12
-16 -27z"/>
<path d="M227 82 c-19 -21 -22 -42 -7 -42 13 0 50 37 50 50 0 16 -26 11 -43
-8z"/>
</g>
</svg>
